<!--?xml version="1.0" standalone="no"?-->
              <svg id="sw-js-blob-svg" viewBox="0 0 100 100" xmlns="http://www.w3.org/2000/svg" version="1.1">
                    <defs> 
                        <linearGradient id="sw-gradient" x1="0" x2="1" y1="1" y2="0">
                            <stop id="stop1" stop-color="rgba(248, 117, 55, 1)" offset="0%"></stop>
                            <stop id="stop2" stop-color="rgba(251, 168, 31, 1)" offset="100%"></stop>
                        </linearGradient>
                    </defs>
                <path fill="url(#sw-gradient)" d="M28.6,-33.3C36.2,-27.7,40.9,-17.9,42.6,-7.6C44.2,2.6,42.9,13.3,37.9,21.9C32.9,30.5,24.4,37,15.3,39.1C6.1,41.2,-3.6,38.8,-11.9,34.9C-20.3,30.9,-27.2,25.3,-32,18C-36.7,10.7,-39.3,1.7,-38.2,-7.1C-37.2,-16,-32.5,-24.6,-25.5,-30.2C-18.5,-35.9,-9.3,-38.6,0.6,-39.3C10.5,-40.1,21,-38.8,28.6,-33.3Z" width="100%" height="100%" transform="translate(50 50)" style="transition: 0.3s;" stroke-width="0"></path>
              </svg>